<?xml version="1.0" encoding="UTF-8"?>
<svg id="_レイヤー_2" data-name="レイヤー_2" xmlns="http://www.w3.org/2000/svg" viewBox="0 0 990.98 556.52">
  <g id="_レイヤー_1-2" data-name="レイヤー_1">
    <g>
      <g>
        <path d="M34,19.09c-1.73-3.71-5.04-6.29-9.94-7.75-4.91-1.45-12.53-2.19-22.87-2.19-.53,0-.8-.79-.8-2.38s.26-2.39.8-2.39l19.49.4c11.13.53,19.88.8,26.25.8,7.16,0,16.3-.26,27.44-.8l18.69-.4c.53,0,.8.8.8,2.39s-.27,2.38-.8,2.38c-10.34,0-17.96.8-22.87,2.39-4.91,1.59-8.22,4.31-9.94,8.15-1.73,3.85-2.58,9.74-2.58,17.7v183.33c0,8.22.86,14.19,2.58,17.89,1.72,3.72,4.97,6.23,9.74,7.56,4.77,1.33,12.46,1.99,23.06,1.99.53,0,.8.8.8,2.39s-.27,2.39-.8,2.39c-7.95,0-14.32-.13-19.09-.4l-27.04-.4-26.25.4c-4.77.27-11.4.4-19.88.4-.53,0-.8-.8-.8-2.39s.26-2.39.8-2.39c10.34,0,17.96-.66,22.87-1.99,4.9-1.32,8.28-3.91,10.14-7.75,1.85-3.84,2.78-9.74,2.78-17.7V36.59c0-7.95-.86-13.78-2.58-17.5ZM46.13,119.7h178.95v7.56H46.13v-7.56ZM213.75,19.69c-1.73-3.84-5.04-6.56-9.94-8.15-4.91-1.59-12.53-2.39-22.87-2.39-.8,0-1.19-.79-1.19-2.38s.4-2.39,1.19-2.39l18.69.4c11.13.53,20.28.8,27.44.8,6.62,0,15.51-.26,26.64-.8l19.09-.4c.8,0,1.19.8,1.19,2.39s-.4,2.38-1.19,2.38c-10.34,0-17.96.73-22.87,2.19-4.91,1.46-8.29,4.04-10.14,7.75-1.86,3.72-2.78,9.54-2.78,17.5v184.12c0,7.95.93,13.86,2.78,17.7,1.85,3.85,5.23,6.43,10.14,7.75,4.9,1.33,12.53,1.99,22.87,1.99.8,0,1.19.8,1.19,2.39s-.4,2.39-1.19,2.39c-8.22,0-14.58-.13-19.09-.4l-26.64-.4-27.44.4c-4.51.27-10.74.4-18.69.4-.8,0-1.19-.8-1.19-2.39s.4-2.39,1.19-2.39c10.6,0,18.29-.66,23.06-1.99,4.77-1.32,8.01-3.84,9.74-7.56,1.72-3.71,2.58-9.67,2.58-17.89V37.38c0-7.95-.86-13.85-2.58-17.7Z"/>
        <path d="M352.93,240.39c-19.23-11.53-34.07-27.17-44.54-46.93-10.48-19.75-15.71-41.29-15.71-64.62,0-27.3,6.89-50.7,20.68-70.19,13.78-19.49,31.48-34.13,53.09-43.94,21.6-9.8,43.67-14.71,66.21-14.71,25.18,0,47.32,5.9,66.41,17.7,19.09,11.8,33.73,27.38,43.94,46.73,10.2,19.35,15.31,39.9,15.31,61.64,0,24.13-6.36,46.27-19.09,66.41-12.73,20.15-29.76,36.06-51.1,47.72-21.34,11.67-44.48,17.5-69.39,17.5s-46.59-5.77-65.81-17.3ZM483.96,236.61c15.11-8.75,27.04-21.6,35.79-38.57,8.75-16.96,13.13-37.24,13.13-60.84,0-24.92-4.84-47.12-14.51-66.61-9.68-19.49-23.33-34.66-40.96-45.53-17.63-10.87-38.11-16.3-61.44-16.3-30.76,0-54.75,9.54-71.98,28.63-17.24,19.09-25.85,45.07-25.85,77.94,0,24.65,4.83,47.26,14.52,67.8,9.67,20.55,23.26,36.78,40.76,48.71,17.5,11.93,37.38,17.89,59.65,17.89,18.82,0,35.79-4.37,50.9-13.12Z"/>
        <path d="M614.79,13.52l8.75.8-3.58,197.24c-.27,13.79,1.99,23.33,6.76,28.63,4.77,5.31,13.65,7.95,26.64,7.95.53,0,.79.8.79,2.39s-.27,2.39-.79,2.39c-7.43,0-13.13-.13-17.1-.4l-21.48-.4-19.49.4c-3.45.27-8.62.4-15.51.4-.53,0-.79-.8-.79-2.39s.26-2.39.79-2.39c11.13,0,19.02-2.72,23.66-8.15,4.64-5.43,7.09-14.91,7.36-28.43l3.98-198.04ZM885.2,250.53c0,1.59-.4,2.39-1.19,2.39-8.22,0-14.71-.13-19.49-.4l-26.64-.4-24.65.4c-3.98.27-9.54.4-16.7.4-.53,0-.79-.8-.79-2.39s.26-2.39.79-2.39c9.28,0,16.11-.73,20.48-2.19,4.38-1.45,7.29-4.04,8.75-7.75,1.45-3.71,1.92-9.54,1.39-17.5l-7.16-196.05,11.53-14.71-104.19,240.19c-.54,1.06-1.59,1.59-3.18,1.59-1.33,0-2.52-.53-3.58-1.59l-97.03-212.75c-4.24-9.81-9.74-16.96-16.5-21.47-6.76-4.5-14.91-6.76-24.46-6.76-.53,0-.79-.79-.79-2.38s.26-2.39.79-2.39l13.52.4c2.65.27,6.09.4,10.34.4s7.82-.13,10.74-.4c2.91-.26,5.17-.4,6.76-.4,3.71,0,6.62,1.26,8.75,3.78,2.12,2.52,5.3,8.15,9.54,16.9l91.07,196.85-10.34,16.7L820.78,14.32c1.32-2.91,3.11-5.3,5.37-7.16,2.25-1.85,4.43-2.78,6.56-2.78,1.06,0,2.78.14,5.17.4,2.39.27,5.7.4,9.94.4l17.9-.4c2.65-.26,6.76-.4,12.33-.4.53,0,.8.8.8,2.39s-.27,2.38-.8,2.38c-13.79,0-23.53,1.79-29.23,5.37-5.7,3.58-8.42,10.68-8.15,21.28l7.56,184.92c.26,8.22,1.25,14.19,2.98,17.89,1.72,3.72,5.03,6.23,9.94,7.56,4.9,1.33,12.53,1.99,22.87,1.99.8,0,1.19.8,1.19,2.39Z"/>
        <path d="M957.37,238.6c1.72,3.72,4.97,6.23,9.75,7.56,4.77,1.33,12.46,1.99,23.06,1.99.53,0,.8.8.8,2.39s-.27,2.39-.8,2.39c-7.95,0-14.19-.13-18.69-.4l-27.84-.4-26.64.4c-4.77.27-11.27.4-19.49.4-.8,0-1.19-.8-1.19-2.39s.4-2.39,1.19-2.39c10.34,0,17.96-.66,22.87-1.99,4.9-1.32,8.28-3.91,10.14-7.75,1.85-3.84,2.78-9.74,2.78-17.7V36.59c0-7.95-.93-13.78-2.78-17.5-1.86-3.71-5.24-6.29-10.14-7.75-4.91-1.45-12.53-2.19-22.87-2.19-.8,0-1.19-.79-1.19-2.38s.4-2.39,1.19-2.39l19.49.4c11.13.53,20.02.8,26.64.8,7.42,0,16.7-.26,27.84-.8l18.69-.4c.53,0,.8.8.8,2.39s-.27,2.38-.8,2.38c-10.34,0-17.96.8-22.87,2.39-4.91,1.59-8.22,4.31-9.94,8.15-1.73,3.85-2.58,9.74-2.58,17.7v183.33c0,8.22.86,14.19,2.58,17.89Z"/>
      </g>
      <g>
        <path d="M65.3,476.63c-2.68-.19-5.97-.38-9.88-.57-3.91-.19-8.26-.29-13.03-.29l-18.9.29c-3.44.19-8.21.29-14.32.29-.38,0-.57-.57-.57-1.72s.19-1.72.57-1.72c7.44,0,12.93-.47,16.46-1.43,3.53-.95,5.96-2.81,7.3-5.58,1.33-2.77,2-7.02,2-12.74v-132.57c0-5.73-.62-9.92-1.86-12.6-1.24-2.67-3.63-4.53-7.16-5.58-3.53-1.05-9.02-1.58-16.46-1.58-.38,0-.57-.57-.57-1.72s.19-1.72.57-1.72l14.03.29c8.02.39,14.31.57,18.9.57,6.68,0,13.46-.29,20.33-.86,8.4-.38,14.12-.57,17.18-.57,20.04,0,37.8,3.82,53.26,11.45,15.46,7.64,27.44,18.04,35.93,31.21,8.49,13.17,12.74,27.97,12.74,44.38,0,18.52-4.44,34.89-13.31,49.1-8.88,14.22-20.76,25.2-35.65,32.93-14.89,7.73-31.21,11.59-48.96,11.59-5.54,0-11.74-.29-18.61-.86ZM123.71,464.03c12.41-6.49,22.09-16.03,29.06-28.63,6.97-12.6,10.45-27.68,10.45-45.24s-3.29-31.97-9.88-45.53c-6.59-13.55-16.03-24.29-28.35-32.21-12.31-7.92-26.49-11.88-42.52-11.88-8.4,0-14.84.48-19.33,1.43-4.49.96-7.78,2.91-9.88,5.87-2.1,2.96-3.15,7.4-3.15,13.32v128.84c0,5.73.86,10.31,2.58,13.75s4.77,5.97,9.16,7.59c4.39,1.63,10.78,2.43,19.18,2.43,16.03,0,30.25-3.24,42.66-9.73Z"/>
        <path d="M229.65,472.05c-7.64-5.16-13.41-11.88-17.32-20.19-3.91-8.3-5.87-17.32-5.87-27.06,0-11.26,2.67-21.62,8.02-31.07,5.34-9.45,12.55-16.89,21.62-22.33,9.06-5.44,18.94-8.16,29.63-8.16s18.75,2.91,24.19,8.73c5.44,5.83,8.16,13.79,8.16,23.91,0,2.68-.24,4.54-.72,5.58-.48,1.05-1.39,1.57-2.72,1.57h-13.46c.19-1.33.29-3.15.29-5.44,0-9.54-2.25-16.7-6.73-21.48-4.49-4.77-10.55-7.16-18.18-7.16-10.69,0-19,4.01-24.91,12.02-5.92,8.02-8.88,19.18-8.88,33.5,0,16.61,3.91,30.11,11.74,40.51,7.82,10.41,18.8,15.6,32.93,15.6,5.91,0,10.97-.81,15.17-2.43,4.2-1.62,8.78-4.05,13.74-7.3h.29c.57,0,1.1.33,1.57,1,.47.67.52,1.29.14,1.86-12.6,10.69-26.25,16.03-40.94,16.03-10.88,0-20.14-2.58-27.77-7.73ZM218.77,399.9l65.28-1.14v4.29l-64.99.29-.29-3.44Z"/>
        <path d="M345.89,400.61c4.39,3.92,11.07,8.07,20.04,12.46,6.49,3.25,11.64,6.11,15.46,8.59,3.81,2.48,7.06,5.68,9.73,9.59,2.67,3.92,4.01,8.64,4.01,14.17,0,9.55-3.58,17.61-10.74,24.19-7.16,6.59-16.94,9.88-29.35,9.88-10.12,0-19.09-2.96-26.91-8.88-1.14-.76-1.72-1.91-1.72-3.44l-.57-20.61c0-.57.52-.9,1.58-1,1.05-.09,1.67.14,1.86.72,3.62,9.55,8.25,16.56,13.89,21.04,5.63,4.49,12.36,6.73,20.19,6.73,6.49,0,11.45-1.43,14.89-4.3s5.15-7.06,5.15-12.6-1.2-10.16-3.58-13.89c-2.39-3.72-5.35-6.73-8.88-9.02-3.53-2.29-8.35-4.87-14.46-7.73-6.3-3.05-11.31-5.77-15.03-8.16-3.72-2.38-6.87-5.58-9.45-9.59-2.58-4.01-3.87-8.97-3.87-14.89,0-10.12,3.82-17.94,11.45-23.48,7.63-5.53,16.61-8.3,26.91-8.3,7.06,0,13.84,1.43,20.33,4.29,1.14.57,1.86,1.05,2.15,1.43.29.38.43.96.43,1.72,0,3.63-.1,6.49-.29,8.59l-.29,11.17c0,.38-.57.57-1.72.57s-1.72-.19-1.72-.57c0-6.11-3.15-11.21-9.45-15.32-6.3-4.1-12.98-6.15-20.04-6.15-5.15,0-9.21,1.39-12.17,4.15-2.96,2.77-4.44,6.83-4.44,12.17,0,7.06,2.19,12.55,6.59,16.46Z"/>
        <path d="M424.34,474.63c0-1.14.19-1.72.57-1.72,5.53,0,9.59-.47,12.17-1.43,2.58-.95,4.34-2.81,5.3-5.58.95-2.77,1.43-7.02,1.43-12.74v-54.12c0-7.06-.72-12.12-2.15-15.18-1.43-3.05-3.87-4.58-7.3-4.58-3.63,0-8.21,1.43-13.74,4.3h-.29c-.77,0-1.34-.47-1.72-1.43-.38-.95-.19-1.62.57-2l35.5-16.61,1.15-.29c.38,0,.81.19,1.29.57.47.39.72.86.72,1.43,0,1.14-.1,4.92-.29,11.31-.19,6.4-.29,13.79-.29,22.19v54.4c0,5.73.43,9.98,1.29,12.74.86,2.77,2.58,4.63,5.15,5.58,2.58.96,6.63,1.43,12.17,1.43.57,0,.86.57.86,1.72s-.29,1.72-.86,1.72c-4.39,0-7.83-.1-10.31-.29l-15.18-.29-14.89.29c-2.67.19-6.21.29-10.59.29-.38,0-.57-.57-.57-1.72ZM439.66,325.74c-2-1.9-3.01-4.58-3.01-8.02s1-6.11,3.01-8.02c2-1.91,4.82-2.86,8.45-2.86,3.44,0,6.11.96,8.02,2.86,1.91,1.91,2.86,4.58,2.86,8.02s-.96,6.11-2.86,8.02c-1.91,1.91-4.58,2.86-8.02,2.86-3.63,0-6.44-.95-8.45-2.86Z"/>
        <path d="M508.09,547.78c-7.35-5.82-11.02-13.31-11.02-22.48s3.96-18.66,11.88-27.34c7.92-8.69,19.33-17.23,34.21-25.62l3.15,3.72c-11.65,5.91-20.43,11.74-26.34,17.46-5.92,5.73-8.88,13.55-8.88,23.48s3.19,17.08,9.59,22.62c6.4,5.53,15.89,8.3,28.49,8.3,14.12,0,25.67-3.58,34.64-10.74,8.97-7.16,13.46-16.75,13.46-28.77,0-7.44-1.86-12.93-5.58-16.46-3.72-3.53-8.69-5.78-14.89-6.73-6.21-.96-14.75-1.43-25.62-1.43s-19.52-.39-25.91-1.14c-6.4-.77-11.55-2.58-15.46-5.44-3.91-2.86-5.87-7.35-5.87-13.46s1.67-10.97,5.01-15.18c3.34-4.2,9.11-9.83,17.32-16.89l3.15,2.86c-4.77,4.01-8.12,7.59-10.02,10.74-1.91,3.15-2.86,6.44-2.86,9.88,0,4.2,1.43,7.4,4.29,9.59,2.86,2.2,7.78,3.77,14.75,4.73,6.97.96,16.84,1.43,29.63,1.43s23.1,1.77,31.5,5.3,12.6,11.31,12.6,23.34c0,10.12-3.34,19.56-10.02,28.35-6.68,8.78-15.51,15.75-26.48,20.9-10.98,5.15-22.38,7.73-34.21,7.73-12.98,0-23.15-2.91-30.49-8.73ZM516.11,427.67c-7.73-7.06-11.6-15.84-11.6-26.34s4.01-19.37,12.03-26.63c8.02-7.25,18.9-10.88,32.64-10.88s24.95,3.72,31.93,11.17c6.96,7.44,10.45,16.03,10.45,25.77,0,6.49-1.72,12.6-5.15,18.32-3.44,5.73-8.5,10.36-15.18,13.89-6.68,3.53-14.51,5.3-23.48,5.3-13.36,0-23.91-3.53-31.64-10.59ZM569.79,427.38c4.2-4.58,6.3-11.55,6.3-20.9,0-11.64-3.15-20.99-9.45-28.06-6.3-7.06-14.22-10.59-23.77-10.59-7.26,0-12.93,2.19-17.04,6.58-4.11,4.39-6.16,11.27-6.16,20.62,0,8.59,1.62,15.85,4.87,21.76,3.24,5.92,7.4,10.31,12.45,13.17,5.06,2.86,10.35,4.3,15.89,4.3,7.06,0,12.69-2.29,16.89-6.87ZM591.55,366.4c5.34-1.91,11.17-2.86,17.46-2.86.38,0,.72.67,1,2,.29,1.34.43,2.68.43,4.01,0,2.29-.24,4.44-.72,6.44-.48,2-1.1,2.82-1.86,2.43-6.68-2.67-12.88-4.01-18.61-4.01-3.82,0-8.21.67-13.17,2l-2.58,8.59v-9.73c6.68-4.01,12.69-6.96,18.04-8.88Z"/>
        <path d="M626.77,474.63c0-1.14.29-1.72.86-1.72,5.53,0,9.54-.47,12.02-1.43,2.48-.95,4.2-2.81,5.16-5.58.95-2.77,1.43-7.02,1.43-12.74v-57.26c0-6.68-.76-11.45-2.29-14.32-1.53-2.86-4.2-4.3-8.02-4.3-3.05,0-8.4,1.43-16.03,4.3h-.57c-.76,0-1.29-.43-1.57-1.29s-.05-1.48.72-1.86l31.78-14.89c.38-.19.86-.29,1.43-.29,1.53,0,3.24,2.15,5.15,6.44,1.91,4.29,2.86,9.78,2.86,16.46v67c0,5.73.43,9.98,1.29,12.74.86,2.77,2.58,4.63,5.16,5.58,2.57.96,6.63,1.43,12.17,1.43.57,0,.86.57.86,1.72s-.29,1.72-.86,1.72c-4.39,0-7.83-.1-10.31-.29l-14.89-.29-15.17.29c-2.49.19-5.92.29-10.31.29-.57,0-.86-.57-.86-1.72ZM703.78,474.63c0-1.14.29-1.72.86-1.72,5.54,0,9.54-.47,12.03-1.43,2.48-.95,4.2-2.81,5.15-5.58.95-2.77,1.43-7.02,1.43-12.74v-47.82c0-11.64-2.2-20.14-6.59-25.48-4.39-5.34-11.27-8.02-20.62-8.02-7.25,0-14.65,2.43-22.19,7.3-7.54,4.87-14.08,11.41-19.61,19.61l-1.15-3.44c8.78-11.64,17.27-20.09,25.48-25.34,8.21-5.25,16.61-7.87,25.2-7.87,10.69,0,18.85,2.86,24.48,8.59,5.63,5.72,8.45,14.41,8.45,26.05v56.41c0,5.73.43,9.98,1.29,12.74.86,2.77,2.57,4.63,5.15,5.58,2.58.96,6.63,1.43,12.17,1.43.57,0,.86.57.86,1.72s-.29,1.72-.86,1.72c-4.39,0-7.83-.1-10.31-.29l-14.89-.29-15.18.29c-2.48.19-5.92.29-10.31.29-.57,0-.86-.57-.86-1.72Z"/>
      </g>
    </g>
  </g>
</svg>